# xmcd
#
# Track frame offsets: 
#        150
#        13773
#        24336
#        34949
#        48661
#        60552
#        75114
#        89046
#        97007
#        110141
#        118094
#        130071
#        139139
#        150696
#        163125
#        177306
#        191028
#        204236
#        220262
#
# Disc length: 3082 seconds
#
# Revision: 0
# Processed by: cddbd v1.5.2PL0 Copyright (c) Steve Scherf et al.
# Submitted via: ExactAudioCopy v1.1
#
DISCID=0d0c0813
DTITLE=Mille Après Mille - Willie Lamothe
DYEAR=2005
DGENRE=Country
TTITLE0=Mille Après Mille
TTITLE1=Jambalaya
TTITLE2=Oh! Ma Chérie
TTITLE3=Pourquoi Ma Chérie
TTITLE4=La Fin D'un Amour
TTITLE5=Coeur D'un Cowboy
TTITLE6=Le Long Du Mississippi
TTITLE7=Pense À Moi
TTITLE8=Quand Je Swing Mon Lasso
TTITLE9=Ouvre-Moi Ton Coeur
TTITLE10=Il Ne Faut Pas Pleurer
TTITLE11=Ensemble Pour La Vie
TTITLE12=J'ai Tant Besoin
TTITLE13=Venge-Toi
TTITLE14=Tu N'existe Plus Pour Moi
TTITLE15=Lettre À Maman
TTITLE16=Papa Willie
TTITLE17=Il Y A Un Mur Qui Nous Sépare
TTITLE18=Un Coeur Brisé
EXTD=
EXTT0=
EXTT1=
EXTT2=
EXTT3=
EXTT4=
EXTT5=
EXTT6=
EXTT7=
EXTT8=
EXTT9=
EXTT10=
EXTT11=
EXTT12=
EXTT13=
EXTT14=
EXTT15=
EXTT16=
EXTT17=
EXTT18=
PLAYORDER=
